<mxfile host="app.diagrams.net" modified="2021-07-03T10:29:03.447Z" agent="5.0 (Windows NT 10.0; Win64; x64) AppleWebKit/537.36 (KHTML, like Gecko) Chrome/91.0.4472.114 Safari/537.36 Edg/91.0.864.59" etag="Hx5oSvouZ2wTDTOdRwsY" version="14.7.10" type="github">
  <diagram id="ZVJXdmj31DZ5mD7Zhcnz" name="Page-1">
    <mxGraphModel dx="1208" dy="785" grid="1" gridSize="10" guides="1" tooltips="1" connect="1" arrows="1" fold="1" page="1" pageScale="1" pageWidth="827" pageHeight="1169" math="0" shadow="0">
      <root>
        <mxCell id="0" />
        <mxCell id="1" parent="0" />
        <mxCell id="-liqbclU10YVRCgwF5k1-9" style="edgeStyle=orthogonalEdgeStyle;rounded=0;orthogonalLoop=1;jettySize=auto;html=1;" edge="1" parent="1" source="-liqbclU10YVRCgwF5k1-2" target="-liqbclU10YVRCgwF5k1-4">
          <mxGeometry relative="1" as="geometry" />
        </mxCell>
        <mxCell id="-liqbclU10YVRCgwF5k1-2" value="中餐冷戰" style="rounded=0;whiteSpace=wrap;html=1;" vertex="1" parent="1">
          <mxGeometry x="140" y="220" width="120" height="60" as="geometry" />
        </mxCell>
        <mxCell id="-liqbclU10YVRCgwF5k1-8" style="edgeStyle=orthogonalEdgeStyle;rounded=0;orthogonalLoop=1;jettySize=auto;html=1;entryX=0.5;entryY=0;entryDx=0;entryDy=0;" edge="1" parent="1" source="-liqbclU10YVRCgwF5k1-3" target="-liqbclU10YVRCgwF5k1-2">
          <mxGeometry relative="1" as="geometry" />
        </mxCell>
        <mxCell id="-liqbclU10YVRCgwF5k1-3" value="事件發生" style="rounded=1;whiteSpace=wrap;html=1;arcSize=50;" vertex="1" parent="1">
          <mxGeometry x="140" y="100" width="120" height="60" as="geometry" />
        </mxCell>
        <mxCell id="-liqbclU10YVRCgwF5k1-10" style="edgeStyle=orthogonalEdgeStyle;rounded=0;orthogonalLoop=1;jettySize=auto;html=1;" edge="1" parent="1" source="-liqbclU10YVRCgwF5k1-4" target="-liqbclU10YVRCgwF5k1-5">
          <mxGeometry relative="1" as="geometry" />
        </mxCell>
        <mxCell id="-liqbclU10YVRCgwF5k1-4" value="廚房交談" style="rounded=0;whiteSpace=wrap;html=1;" vertex="1" parent="1">
          <mxGeometry x="140" y="340" width="120" height="60" as="geometry" />
        </mxCell>
        <mxCell id="-liqbclU10YVRCgwF5k1-11" style="edgeStyle=orthogonalEdgeStyle;rounded=0;orthogonalLoop=1;jettySize=auto;html=1;" edge="1" parent="1" source="-liqbclU10YVRCgwF5k1-5" target="-liqbclU10YVRCgwF5k1-6">
          <mxGeometry relative="1" as="geometry" />
        </mxCell>
        <mxCell id="-liqbclU10YVRCgwF5k1-5" value="兩人一起出門" style="rounded=0;whiteSpace=wrap;html=1;" vertex="1" parent="1">
          <mxGeometry x="140" y="460" width="120" height="60" as="geometry" />
        </mxCell>
        <mxCell id="-liqbclU10YVRCgwF5k1-12" style="edgeStyle=orthogonalEdgeStyle;rounded=0;orthogonalLoop=1;jettySize=auto;html=1;entryX=0.5;entryY=0;entryDx=0;entryDy=0;" edge="1" parent="1" source="-liqbclU10YVRCgwF5k1-6" target="-liqbclU10YVRCgwF5k1-7">
          <mxGeometry relative="1" as="geometry" />
        </mxCell>
        <mxCell id="-liqbclU10YVRCgwF5k1-6" value="五小時後" style="shape=or;whiteSpace=wrap;html=1;" vertex="1" parent="1">
          <mxGeometry x="140" y="580" width="120" height="60" as="geometry" />
        </mxCell>
        <mxCell id="-liqbclU10YVRCgwF5k1-14" style="edgeStyle=orthogonalEdgeStyle;rounded=0;orthogonalLoop=1;jettySize=auto;html=1;entryX=0.5;entryY=0;entryDx=0;entryDy=0;" edge="1" parent="1" source="-liqbclU10YVRCgwF5k1-7" target="-liqbclU10YVRCgwF5k1-13">
          <mxGeometry relative="1" as="geometry" />
        </mxCell>
        <mxCell id="-liqbclU10YVRCgwF5k1-7" value="快樂吃晚餐&lt;br&gt;就像什麼事情&lt;br&gt;都沒發生一樣" style="rounded=0;whiteSpace=wrap;html=1;" vertex="1" parent="1">
          <mxGeometry x="140" y="700" width="120" height="60" as="geometry" />
        </mxCell>
        <mxCell id="-liqbclU10YVRCgwF5k1-13" value="事件結束" style="rounded=1;whiteSpace=wrap;html=1;arcSize=50;" vertex="1" parent="1">
          <mxGeometry x="140" y="820" width="120" height="60" as="geometry" />
        </mxCell>
      </root>
    </mxGraphModel>
  </diagram>
</mxfile>
